<?xml version="1.0" encoding="UTF-8"?>
<!DOCTYPE svg PUBLIC "-//W3C//DTD SVG 1.1//EN" "http://www.w3.org/Graphics/SVG/1.1/DTD/svg11.dtd">
<svg version="1.1" xmlns="http://www.w3.org/2000/svg" xmlns:xlink="http://www.w3.org/1999/xlink" width="32" height="32"  xml:space="preserve" id="arriveRight">
    <!-- Generated by PaintCode - http://www.paintcodeapp.com -->
    <g id="arriveRight-group" transform="translate(16, 16)" >
        <path id="arriveRight-bezier" stroke="rgb(0, 0, 0)" stroke-width="4" stroke-linejoin="round" stroke-miterlimit="10" fill="none" d="M -0.99,5.6 L -0.99,16" />
        <path id="arriveRight-bezier2" stroke="none" fill="rgb(0, 0, 0)" d="M -3.05,1.48 C -3.05,1.48 -3.05,1.09 -3.05,0.73 -3.05,0.46 -3.28,0.12 -3.55,0.12 -3.6,0.12 -3.65,0.07 -3.69,0.08 L -8.44,1.02 C -8.44,1.02 -8.51,1.01 -8.55,1.01 -8.83,1.01 -9.05,0.78 -9.05,0.51 -9.05,0.37 -9,0.25 -8.91,0.16 L -1.05,-10.03 6.81,0.16 C 6.9,0.25 6.95,0.37 6.95,0.5 6.95,0.77 6.73,1 6.45,1 6.41,1 6.34,0.99 6.34,0.99 L 1.59,0.02 C 1.55,0.01 1.5,-0 1.45,-0 1.18,-0 0.95,0.46 0.95,0.73 0.95,1.09 0.95,1.48 0.95,1.48" />
        <circle id="arriveRight-oval" stroke="none" fill="rgb(0, 0, 0)" cx="6" cy="-12.55" r="3.05" />
        <rect id="arriveRight-rectangle" stroke="none" fill="rgb(0, 0, 0)" x="-3.05" y="2.63" width="4" height="1.95" />
    </g>
</svg>
