<?xml version="1.0" encoding="UTF-8"?>
<!DOCTYPE svg PUBLIC "-//W3C//DTD SVG 1.1//EN" "http://www.w3.org/Graphics/SVG/1.1/DTD/svg11.dtd">
<svg version="1.1" xmlns="http://www.w3.org/2000/svg" xmlns:xlink="http://www.w3.org/1999/xlink" width="32" height="32"  xml:space="preserve" id="arrive">
    <!-- Generated by PaintCode - http://www.paintcodeapp.com -->
    <g id="arrive-group2" transform="translate(16, 17)" >
        <path id="arrive-bezier" stroke="rgb(0, 0, 0)" stroke-width="4" stroke-linejoin="round" stroke-miterlimit="10" fill="none" d="M 0.06,6.6 L 0.06,15" />
        <path id="arrive-bezier2" stroke="none" fill="rgb(0, 0, 0)" d="M -2,2.48 C -2,2.48 -2,2.09 -2,1.73 -2,1.46 -2.23,1.12 -2.5,1.12 -2.55,1.12 -2.6,1.07 -2.64,1.08 L -7.39,2.02 C -7.39,2.02 -7.46,2.01 -7.5,2.01 -7.78,2.01 -8,1.78 -8,1.51 -8,1.37 -7.95,1.25 -7.86,1.16 L 0,-9.03 7.86,1.16 C 7.95,1.25 8,1.37 8,1.5 8,1.77 7.78,2 7.5,2 7.46,2 7.39,1.99 7.39,1.99 L 2.64,1.02 C 2.6,1.01 2.55,1 2.5,1 2.23,1 2,1.46 2,1.73 2,2.09 2,2.48 2,2.48" />
        <circle id="arrive-oval" stroke="none" fill="rgb(0, 0, 0)" cx="0.05" cy="-13.55" r="3.05" />
        <rect id="arrive-rectangle" stroke="none" fill="rgb(0, 0, 0)" x="-2" y="3.62" width="4" height="1.95" />
    </g>
</svg>
