<?xml version="1.0" encoding="UTF-8"?>
<!DOCTYPE svg PUBLIC "-//W3C//DTD SVG 1.1//EN" "http://www.w3.org/Graphics/SVG/1.1/DTD/svg11.dtd">
<svg version="1.1" xmlns="http://www.w3.org/2000/svg" xmlns:xlink="http://www.w3.org/1999/xlink" width="32" height="32"  xml:space="preserve" id="arrowSharpRight">
    <!-- Generated by PaintCode - http://www.paintcodeapp.com -->
    <g id="arrowSharpRight-group2" transform="translate(16, 16)" >
        <path id="arrowSharpRight-bezier" stroke="none" fill="rgb(0, 0, 0)" d="M -1.66,4.57 L 13.13,7.5 11.36,-7.47 C 11.36,-7.59 11.32,-7.71 11.23,-7.81 11.04,-8.01 10.73,-8.03 10.52,-7.84 10.49,-7.81 10.45,-7.75 10.45,-7.75 L 7.57,-2.41 C 7.54,-2.37 7.51,-2.33 7.48,-2.3 7.28,-2.11 6.96,-2.12 6.78,-2.31 6.54,-2.57 5.09,-4.15 5.09,-4.15 L 3.61,-2.79 2.14,-1.43 C 2.14,-1.43 3.6,0.14 3.85,0.41 4.02,0.6 4.01,0.92 3.81,1.1 3.77,1.14 3.73,1.16 3.69,1.18 L -1.87,3.64 C -1.87,3.64 -1.93,3.68 -1.96,3.7 -2.16,3.89 -2.17,4.21 -1.99,4.41 -1.9,4.51 -1.78,4.56 -1.66,4.57 Z M -1.66,4.57" />
        <path id="arrowSharpRight-bezier3" stroke="rgb(0, 0, 0)" stroke-width="4" stroke-miterlimit="10" fill="none" d="M -11.12,-4 C -11.12,-4 -11.33,-8.5 -6.62,-8.5 -1.91,-8.5 1.88,-4.5 1.88,-4.5 L 4.88,-1.5 M -11.12,-4.5 L -11.12,1.5 M -11.12,1.5 L -11.12,3.5 M -11.12,3.5 L -11.12,12.98 -11.12,16" />
    </g>
</svg>
