<?xml version="1.0" encoding="UTF-8"?>
<!DOCTYPE svg PUBLIC "-//W3C//DTD SVG 1.1//EN" "http://www.w3.org/Graphics/SVG/1.1/DTD/svg11.dtd">
<svg version="1.1" xmlns="http://www.w3.org/2000/svg" xmlns:xlink="http://www.w3.org/1999/xlink" width="32" height="32"  xml:space="preserve" id="arrowStraight">
    <!-- Generated by PaintCode - http://www.paintcodeapp.com -->
    <path id="arrowStraight-bezier" stroke="none" fill="rgb(0, 0, 0)" d="M 8.86,-2.82 L 0,-15.02 -8.86,-2.82 C -8.95,-2.73 -9,-2.62 -9,-2.48 -9,-2.21 -8.78,-1.98 -8.5,-1.98 -8.46,-1.98 -8.39,-2 -8.39,-2 L -2.64,-3.96 C -2.6,-3.98 -2.55,-3.98 -2.5,-3.98 -2.23,-3.98 -2,-3.76 -2,-3.5 L -2,15.02 2,15.02 C 2,15.02 2,-3.14 2,-3.5 2,-3.76 2.23,-3.98 2.5,-3.98 2.55,-3.98 2.6,-3.98 2.64,-3.96 L 8.39,-2 C 8.39,-2 8.46,-1.98 8.5,-1.98 8.78,-1.98 9,-2.21 9,-2.48 9,-2.62 8.95,-2.73 8.86,-2.82 Z M 8.86,-2.82" transform="translate(16, 17)"  />
</svg>
