<?xml version="1.0" encoding="UTF-8"?>
<!DOCTYPE svg PUBLIC "-//W3C//DTD SVG 1.1//EN" "http://www.w3.org/Graphics/SVG/1.1/DTD/svg11.dtd">
<svg version="1.1" xmlns="http://www.w3.org/2000/svg" xmlns:xlink="http://www.w3.org/1999/xlink" width="32" height="32"  xml:space="preserve" id="destination">
    <!-- Generated by PaintCode - http://www.paintcodeapp.com -->
    <path id="destination-bezier" stroke="none" fill="rgb(0, 0, 0)" d="M 0,-7 C -0.34,-7 -0.66,-6.94 -0.97,-6.84 -2.15,-6.44 -3,-5.32 -3,-4 -3,-2.34 -1.66,-1 0,-1 1.66,-1 3,-2.34 3,-4 3,-5.66 1.66,-7 0,-7 Z M 8,-4 C 8,0.42 4,3 0,12 -4,3 -8,0.42 -8,-4 -8,-6.36 -6.98,-8.49 -5.35,-9.95 -4.83,-10.42 -4.25,-10.81 -3.63,-11.13 -2.54,-11.69 -1.31,-12 0,-12 4.42,-12 8,-8.42 8,-4 Z M 8,-4" transform="translate(16, 16)"  />
</svg>
