<?xml version="1.0" encoding="UTF-8"?>
<!DOCTYPE svg PUBLIC "-//W3C//DTD SVG 1.1//EN" "http://www.w3.org/Graphics/SVG/1.1/DTD/svg11.dtd">
<svg version="1.1" xmlns="http://www.w3.org/2000/svg" xmlns:xlink="http://www.w3.org/1999/xlink" width="32" height="32"  xml:space="preserve" id="merge">
    <!-- Generated by PaintCode - http://www.paintcodeapp.com -->
    <g id="merge-group3" transform="translate(16, 17)" >
        <path id="merge-bezier" stroke="rgb(158, 158, 158)" stroke-width="4" stroke-linejoin="round" stroke-miterlimit="10" fill="none" d="M 8.07,15 L 8.07,12.47 C 8.07,10.53 7.44,8.65 6.28,7.1 L 1.86,1.19 C 0.69,-0.36 0.07,-2.25 0.07,-4.19 L 0.07,-10.51" />
        <path id="merge-bezier2" stroke="rgb(0, 0, 0)" stroke-width="4" stroke-linejoin="round" stroke-miterlimit="10" fill="none" d="M -8.06,15 L -8.06,12.39 C -8.06,10.45 -7.43,8.56 -6.27,7.01 L -1.85,1.11 C -0.69,-0.45 -0.06,-2.33 -0.06,-4.27 L -0.06,-10.6" />
        <path id="merge-bezier3" stroke="none" fill="rgb(0, 0, 0)" d="M 7.8,-6.29 L -0.07,-16.48 -7.93,-6.29 C -8.01,-6.2 -8.07,-6.08 -8.07,-5.95 -8.07,-5.67 -7.84,-5.45 -7.57,-5.45 -7.53,-5.45 -7.45,-5.46 -7.45,-5.46 L -2.71,-6.43 C -2.66,-6.44 -2.62,-6.45 -2.57,-6.45 -2.3,-6.45 -2.07,-5.98 -2.07,-5.72 -2.07,-5.36 -2.07,-2.96 -2.07,-2.96 L -0.07,-2.96 1.94,-2.96 C 1.94,-2.96 1.93,-5.36 1.93,-5.72 1.93,-5.98 2.16,-6.33 2.43,-6.33 2.48,-6.33 2.53,-6.38 2.58,-6.37 L 7.32,-5.43 C 7.32,-5.43 7.4,-5.43 7.43,-5.43 7.71,-5.43 7.93,-5.66 7.93,-5.94 7.93,-6.07 7.88,-6.2 7.8,-6.29 Z M 7.8,-6.29" />
    </g>
</svg>
