<?xml version="1.0" encoding="UTF-8"?>
<!DOCTYPE svg PUBLIC "-//W3C//DTD SVG 1.1//EN" "http://www.w3.org/Graphics/SVG/1.1/DTD/svg11.dtd">
<svg version="1.1" xmlns="http://www.w3.org/2000/svg" xmlns:xlink="http://www.w3.org/1999/xlink" width="32" height="32"  xml:space="preserve" id="offramp">
    <!-- Generated by PaintCode - http://www.paintcodeapp.com -->
    <g id="offramp-group3" transform="translate(19.38, 16)" >
        <path id="offramp-bezier" stroke="rgb(158, 158, 158)" stroke-width="4" stroke-linejoin="round" stroke-miterlimit="10" fill="none" d="M -10.38,16 L -10.38,7.51 C -10.38,5.7 -10.38,-13 -10.38,-13" />
        <path id="offramp-bezier2" stroke="rgb(0, 0, 0)" stroke-width="4" stroke-linejoin="round" stroke-miterlimit="10" fill="none" d="M -0.81,-4.4 L -8.35,1.79 C -9.51,3.34 -10.38,5.23 -10.38,7.17 L -10.38,16" />
        <path id="offramp-bezier3" stroke="none" fill="rgb(0, 0, 0)" d="M -4.85,-11.35 L 8,-12.07 5.43,0.55 C 5.42,0.67 5.36,0.79 5.26,0.87 5.06,1.05 4.74,1.03 4.56,0.82 4.53,0.79 4.49,0.73 4.49,0.73 L 2.12,-3.49 C 2.1,-3.54 2.08,-3.58 2.05,-3.62 1.87,-3.82 1.37,-3.69 1.17,-3.52 0.9,-3.28 -0.91,-1.71 -0.91,-1.71 L -2.23,-3.23 -3.54,-4.74 C -3.54,-4.74 -1.72,-6.31 -1.45,-6.54 -1.25,-6.72 -1.14,-7.11 -1.32,-7.32 -1.35,-7.36 -1.34,-7.43 -1.38,-7.45 L -5.19,-10.43 C -5.19,-10.43 -5.24,-10.49 -5.26,-10.52 -5.44,-10.73 -5.41,-11.05 -5.2,-11.23 -5.1,-11.31 -4.97,-11.36 -4.85,-11.35 Z M -4.85,-11.35" />
    </g>
</svg>
