<?xml version="1.0" encoding="UTF-8"?>
<!DOCTYPE svg PUBLIC "-//W3C//DTD SVG 1.1//EN" "http://www.w3.org/Graphics/SVG/1.1/DTD/svg11.dtd">
<svg version="1.1" xmlns="http://www.w3.org/2000/svg" xmlns:xlink="http://www.w3.org/1999/xlink" width="32" height="32"  xml:space="preserve" id="roundabout">
    <!-- Generated by PaintCode - http://www.paintcodeapp.com -->
    <g id="roundabout-group3" transform="translate(10, 15)" >
        <path id="roundabout-bezier" stroke="rgb(158, 158, 158)" stroke-width="4" stroke-linejoin="round" stroke-miterlimit="10" fill="none" d="M 6.5,1 C 6.5,2.8 5.78,4.42 4.6,5.59 3.43,6.77 1.8,7.5 0,7.5 -1.79,7.5 -3.41,6.78 -4.59,5.61 -5.77,4.43 -6.5,2.8 -6.5,1 -6.5,-0.79 -5.77,-2.42 -4.6,-3.59 -3.42,-4.77 -1.79,-5.5 0,-5.5 1.79,-5.5 3.42,-4.77 4.6,-3.59 5.77,-2.42 6.5,-0.79 6.5,1 Z M 6.5,1" />
        <path id="roundabout-rectangle2" stroke="none" fill="rgb(0, 0, 0)" d="M -1.97,17.5 L 2.03,17.5 2.03,6.5 C 2.03,5.95 1.58,5.5 1.03,5.5 L -0.97,5.5 C -1.53,5.5 -1.97,5.95 -1.97,6.5 Z M -1.97,17.5" />
        <g id="roundabout-group">
            <path id="roundabout-bezier2" stroke="none" fill="rgb(0, 0, 0)" d="M -9.47,-7.49 C -9.47,-7.45 -9.49,-7.38 -9.49,-7.38 -9.57,-6.97 -10.45,-2.64 -10.45,-2.64 -10.47,-2.59 -10.47,-2.54 -10.47,-2.49 -10.47,-2.25 -10.09,-2.03 -9.82,-2 L -5.5,-2 C -4.95,-2 -4.5,-1.55 -4.5,-1 L -4.5,1 C -4.5,1.55 -4.95,2 -5.5,2 -5.5,2 -9.38,2.01 -9.75,2.01 -10.01,2.01 -10.35,2.24 -10.35,2.51 -10.35,2.56 -10.41,2.6 -10.39,2.65 L -9.46,7.39 C -9.46,7.39 -9.46,7.47 -9.46,7.51 -9.46,7.78 -9.69,8.01 -9.97,8.01 -10.1,8.01 -10.22,7.95 -10.31,7.87 L -20.5,0.01 -10.31,-7.86 C -10.22,-7.94 -10.11,-7.99 -9.97,-7.99 -9.7,-7.99 -9.47,-7.77 -9.47,-7.49 Z M -9.47,-7.49" transform="translate(0, 1) rotate(-180)"  />
        </g>
        <path id="roundabout-bezier3" stroke="rgb(0, 0, 0)" stroke-width="4" stroke-linejoin="round" stroke-miterlimit="10" stroke-dasharray="10.21,1000" stroke-dashoffset="0" fill="none" d="M 5.5,-1 C 5.5,0.79 4.78,2.41 3.6,3.59 2.43,4.77 0.8,5.5 -1,5.5 -2.79,5.5 -4.41,4.78 -5.59,3.61 -6.77,2.43 -7.5,0.8 -7.5,-1 -7.5,-2.79 -6.77,-4.42 -5.6,-5.6 -4.42,-6.77 -2.79,-7.5 -1,-7.5 0.79,-7.5 2.42,-6.77 3.6,-5.6 4.77,-4.42 5.5,-2.79 5.5,-1 Z M 5.5,-1" transform="translate(1, 2) rotate(-90) scale(-1, 1)"  />
    </g>
</svg>
