<?xml version="1.0" encoding="UTF-8"?>
<!DOCTYPE svg PUBLIC "-//W3C//DTD SVG 1.1//EN" "http://www.w3.org/Graphics/SVG/1.1/DTD/svg11.dtd">
<svg version="1.1" xmlns="http://www.w3.org/2000/svg" xmlns:xlink="http://www.w3.org/1999/xlink" width="30" height="30"  xml:space="preserve" id="laneStraight">
    <!-- Generated by PaintCode - http://www.paintcodeapp.com -->
    <g id="laneStraight-group">
        <rect id="laneStraight-rectangle" stroke="none" fill="rgb(0, 0, 0)" x="13" y="11" width="4" height="16" />
        <path id="laneStraight-bezier" fill-rule="evenodd" stroke="none" fill="rgb(0, 0, 0)" d="M 13.01,12.92 L 13.02,11.66 13.01,11.66 C 13.01,11.6 13.01,11.53 13.01,11.46 13.01,11.17 12.82,10.94 12.53,10.94 12.5,10.94 12.46,10.94 12.43,10.94 L 12.44,10.94 9.71,11.93 9.71,11.93 C 9.65,11.96 9.59,11.97 9.52,11.97 9.23,11.97 9,11.74 9,11.45 9,11.3 9.06,11.17 9.16,11.07 L 9.16,11.08 15.02,3 20.86,11.14 20.86,11.14 C 20.96,11.23 21.02,11.37 21.02,11.52 21.02,11.8 20.79,12.03 20.5,12.03 20.43,12.03 20.37,12.02 20.31,11.99 L 20.31,11.99 17.58,11 17.59,11.01 C 17.56,11 17.52,11 17.49,11 17.2,11 17.01,11.23 17.01,11.52 17.01,11.59 17.01,11.66 17.01,11.73 L 17,11.72 17.01,12.99" />
    </g>
</svg>
