<?xml version="1.0" encoding="UTF-8"?>
<!DOCTYPE svg PUBLIC "-//W3C//DTD SVG 1.1//EN" "http://www.w3.org/Graphics/SVG/1.1/DTD/svg11.dtd">
<svg version="1.1" xmlns="http://www.w3.org/2000/svg" xmlns:xlink="http://www.w3.org/1999/xlink" width="30" height="30"  xml:space="preserve" id="laneStraightOnly">
    <!-- Generated by PaintCode - http://www.paintcodeapp.com -->
    <g id="laneStraightOnly-group" transform="translate(15.02, 14.58)" >
        <path id="laneStraightOnly-bezier2" fill-rule="evenodd" stroke="none" fill="rgb(158, 158, 158)" d="M 3.03,0.01 L 4.3,0.01 4.29,0.01 C 4.35,0.01 4.43,0 4.49,0 4.78,0 5.02,-0.19 5.02,-0.48 5.02,-0.51 5.02,-0.54 5.01,-0.57 L 5.02,-0.57 4.02,-3.3 4.03,-3.29 C 4,-3.35 3.99,-3.42 3.99,-3.49 3.99,-3.77 4.22,-4.01 4.5,-4.01 4.65,-4.01 4.79,-3.94 4.88,-3.84 L 4.88,-3.85 11.96,2.01 4.82,7.85 4.82,7.85 C 4.73,7.95 4.59,8.01 4.44,8.01 4.16,8.01 3.93,7.78 3.93,7.5 3.93,7.43 3.94,7.36 3.96,7.3 L 3.96,7.31 4.95,4.58 4.95,4.58 C 4.95,4.55 4.96,4.52 4.96,4.49 4.96,4.2 4.72,4 4.43,4 4.36,4 4.29,4 4.23,4 L 4.24,4 2.97,4" />
        <path id="laneStraightOnly-bezier3" stroke="rgb(158, 158, 158)" stroke-width="4" stroke-miterlimit="10" fill="none" d="M -3.99,12.42 L -3.99,8.29 C -3.99,6.64 -3.28,5.06 -2.01,4.03 -0.79,3.03 0.92,2.03 2.82,2.03 L 5.01,2.03" />
        <rect id="laneStraightOnly-rectangle" stroke="none" fill="rgb(0, 0, 0)" x="-6.02" y="-3.58" width="4" height="16" />
        <path id="laneStraightOnly-bezier" stroke="none" fill="rgb(0, 0, 0)" d="M -4,-12.58 C -3.96,-12.53 1.72,-4.62 1.84,-4.45 1.94,-4.35 2,-4.21 2,-4.07 2,-3.78 1.77,-3.55 1.49,-3.55 1.42,-3.55 1.36,-3.56 1.3,-3.59 1.18,-3.63 -1.32,-4.54 -1.43,-4.58 -1.81,-4.58 -2.01,-4.35 -2.01,-4.06 -2.01,-3.99 -2.01,-3.92 -2.01,-3.86 -2.01,-3.78 -2.01,-2.6 -2.01,-2.6 L -6,-2.66 C -6,-2.66 -6,-3.83 -6,-3.92 -6,-3.98 -6.01,-4.05 -6.01,-4.12 -6.01,-4.41 -6.2,-4.65 -6.49,-4.65 -6.69,-4.6 -9.19,-3.69 -9.3,-3.65 -9.37,-3.63 -9.43,-3.61 -9.5,-3.61 -9.78,-3.61 -10.01,-3.84 -10.02,-4.12 -10.01,-4.28 -9.95,-4.41 -9.86,-4.51 -9.73,-4.68 -4.04,-12.53 -4,-12.58 L -4,-12.58 Z M -4,-12.58" />
    </g>
</svg>
