<?xml version="1.0" encoding="UTF-8"?>
<!DOCTYPE svg PUBLIC "-//W3C//DTD SVG 1.1//EN" "http://www.w3.org/Graphics/SVG/1.1/DTD/svg11.dtd">
<svg version="1.1" xmlns="http://www.w3.org/2000/svg" xmlns:xlink="http://www.w3.org/1999/xlink" width="30" height="30"  xml:space="preserve" id="laneSlightRight">
    <!-- Generated by PaintCode - http://www.paintcodeapp.com -->
    <g id="laneSlightRight-group" transform="translate(14.98, 13.11)" >
        <path id="laneSlightRight-bezier3" stroke="rgb(0, 0, 0)" stroke-width="4" stroke-linejoin="round" stroke-miterlimit="10" fill="none" d="M 0.87,-3.35 L -4.82,1.92 C -5.7,3.24 -6.3,4.85 -6.3,6.5 L -6.3,13.63" />
        <path id="laneSlightRight-bezier" fill-rule="evenodd" stroke="none" fill="rgb(0, 0, 0)" d="M 4.01,9.92 L 4.02,8.66 4.01,8.66 C 4.01,8.6 4.01,8.53 4.01,8.46 4.01,8.17 3.82,7.94 3.53,7.94 3.5,7.94 3.46,7.94 3.43,7.94 L 3.44,7.94 0.71,8.93 0.71,8.93 C 0.65,8.96 0.58,8.97 0.52,8.97 0.23,8.97 -0,8.74 -0,8.45 -0,8.3 0.06,8.17 0.16,8.07 L 0.16,8.08 6.01,-0 11.86,8.14 11.86,8.14 C 11.96,8.23 12.02,8.37 12.02,8.52 12.02,8.8 11.79,9.03 11.5,9.03 11.43,9.03 11.37,9.02 11.31,8.99 L 11.31,8.99 8.58,8 8.59,8.01 C 8.56,8 8.52,8 8.49,8 8.2,8 8.01,8.23 8.01,8.53 8.01,8.59 8,8.66 8,8.73 L 8,8.72 8.01,9.99" transform="translate(3.95, -13.97) rotate(49)"  />
    </g>
</svg>
