<?xml version="1.0" encoding="UTF-8"?>
<!DOCTYPE svg PUBLIC "-//W3C//DTD SVG 1.1//EN" "http://www.w3.org/Graphics/SVG/1.1/DTD/svg11.dtd">
<svg version="1.1" xmlns="http://www.w3.org/2000/svg" xmlns:xlink="http://www.w3.org/1999/xlink" width="30" height="30"  xml:space="preserve" id="laneRightOnly">
    <!-- Generated by PaintCode - http://www.paintcodeapp.com -->
    <g id="laneRightOnly-group" transform="translate(14.98, 14.42)" >
        <rect id="laneRightOnly-rectangle" stroke="none" fill="rgb(158, 158, 158)" x="-5.98" y="-3.42" width="4" height="16" />
        <path id="laneRightOnly-bezier" stroke="none" fill="rgb(158, 158, 158)" d="M -3.96,-12.42 C -3.92,-12.36 1.76,-4.45 1.88,-4.29 1.98,-4.19 2.04,-4.05 2.04,-3.9 2.04,-3.62 1.81,-3.39 1.52,-3.39 1.46,-3.39 1.39,-3.4 1.33,-3.43 1.22,-3.47 -1.28,-4.38 -1.39,-4.42 -1.78,-4.42 -1.97,-4.19 -1.97,-3.9 -1.97,-3.83 -1.97,-3.76 -1.97,-3.7 -1.98,-3.62 -1.97,-2.43 -1.97,-2.43 L -5.97,-2.5 C -5.97,-2.5 -5.96,-3.67 -5.96,-3.76 -5.97,-3.82 -5.97,-3.89 -5.97,-3.96 -5.97,-4.25 -6.16,-4.48 -6.45,-4.48 -6.66,-4.44 -9.16,-3.53 -9.27,-3.49 -9.33,-3.47 -9.4,-3.45 -9.46,-3.45 -9.75,-3.45 -9.98,-3.68 -9.98,-3.96 -9.98,-4.12 -9.92,-4.25 -9.82,-4.34 -9.7,-4.52 -4.01,-12.36 -3.96,-12.42 L -3.96,-12.42 Z M -3.96,-12.42" />
        <path id="laneRightOnly-bezier2" fill-rule="evenodd" stroke="none" fill="rgb(0, 0, 0)" d="M 3.07,0.17 L 4.33,0.17 4.33,0.17 C 4.39,0.17 4.46,0.17 4.53,0.17 4.82,0.17 5.05,-0.03 5.05,-0.32 5.05,-0.35 5.05,-0.38 5.05,-0.41 L 5.05,-0.41 4.06,-3.14 4.06,-3.13 C 4.04,-3.19 4.02,-3.26 4.02,-3.33 4.02,-3.61 4.25,-3.84 4.54,-3.84 4.69,-3.84 4.82,-3.78 4.92,-3.68 L 4.92,-3.68 11.99,2.17 4.85,8.02 4.86,8.01 C 4.76,8.11 4.62,8.18 4.48,8.18 4.19,8.18 3.96,7.94 3.96,7.66 3.96,7.59 3.97,7.52 4,7.46 L 4,7.47 4.99,4.74 4.99,4.74 C 4.99,4.71 4.99,4.68 4.99,4.65 4.99,4.36 4.76,4.17 4.47,4.17 4.4,4.17 4.33,4.16 4.27,4.16 L 4.27,4.16 3.01,4.16" />
        <path id="laneRightOnly-bezier3" stroke="rgb(0, 0, 0)" stroke-width="4" stroke-miterlimit="10" fill="none" d="M -3.95,12.58 L -3.95,8.45 C -3.95,6.81 -3.25,5.23 -1.98,4.19 -0.75,3.19 0.95,2.19 2.86,2.19 L 5.05,2.19" />
    </g>
</svg>
