<?xml version="1.0" encoding="UTF-8"?>
<!DOCTYPE svg PUBLIC "-//W3C//DTD SVG 1.1//EN" "http://www.w3.org/Graphics/SVG/1.1/DTD/svg11.dtd">
<svg version="1.1" xmlns="http://www.w3.org/2000/svg" xmlns:xlink="http://www.w3.org/1999/xlink" width="30" height="30"  xml:space="preserve" id="laneStraightRight">
    <!-- Generated by PaintCode - http://www.paintcodeapp.com -->
    <g id="laneStraightRight-group" transform="translate(14.93, 14.39)" >
        <rect id="laneStraightRight-rectangle" stroke="none" fill="rgb(0, 0, 0)" x="-5.93" y="-2.89" width="4" height="15.5" />
        <path id="laneStraightRight-bezier" stroke="none" fill="rgb(0, 0, 0)" d="M -3.91,-12.39 C -3.87,-12.33 1.81,-4.42 1.93,-4.26 2.03,-4.16 2.09,-4.02 2.09,-3.88 2.09,-3.59 1.86,-3.36 1.58,-3.36 1.51,-3.36 1.44,-3.37 1.38,-3.4 1.27,-3.44 -1.23,-4.35 -1.34,-4.39 -1.73,-4.39 -1.92,-4.16 -1.92,-3.87 -1.92,-3.8 -1.92,-3.73 -1.92,-3.67 -1.92,-3.59 -1.92,-2.41 -1.92,-2.41 L -5.92,-2.47 C -5.92,-2.47 -5.91,-3.64 -5.91,-3.73 -5.91,-3.79 -5.92,-3.86 -5.92,-3.93 -5.92,-4.22 -6.11,-4.45 -6.4,-4.45 -6.6,-4.41 -9.11,-3.5 -9.22,-3.46 -9.28,-3.44 -9.34,-3.42 -9.41,-3.42 -9.69,-3.42 -9.92,-3.65 -9.93,-3.93 -9.93,-4.09 -9.87,-4.22 -9.77,-4.31 -9.64,-4.49 -3.95,-12.33 -3.91,-12.39 L -3.91,-12.39 Z M -3.91,-12.39" />
        <path id="laneStraightRight-bezier2" fill-rule="evenodd" stroke="none" fill="rgb(0, 0, 0)" d="M 3.12,0.2 L 4.39,0.2 4.38,0.2 C 4.44,0.2 4.51,0.2 4.58,0.2 4.87,0.2 5.11,0 5.11,-0.29 5.11,-0.32 5.1,-0.35 5.1,-0.38 L 5.1,-0.38 4.11,-3.11 4.11,-3.1 C 4.09,-3.16 4.07,-3.23 4.07,-3.3 4.07,-3.58 4.31,-3.81 4.59,-3.81 4.74,-3.81 4.88,-3.75 4.97,-3.65 L 4.97,-3.65 12.04,2.2 4.91,8.05 4.91,8.04 C 4.81,8.14 4.68,8.21 4.53,8.21 4.24,8.21 4.01,7.97 4.01,7.69 4.01,7.62 4.03,7.55 4.05,7.49 L 4.05,7.5 5.04,4.77 5.04,4.77 C 5.04,4.74 5.04,4.71 5.04,4.68 5.04,4.39 4.81,4.2 4.52,4.2 4.45,4.2 4.38,4.19 4.32,4.19 L 4.32,4.19 3.06,4.19" />
        <path id="laneStraightRight-bezier3" stroke="rgb(0, 0, 0)" stroke-width="4" stroke-miterlimit="10" fill="none" d="M -3.9,12.61 L -3.9,8.48 C -3.9,6.84 -3.2,5.25 -1.92,4.22 -0.7,3.22 1,2.22 2.91,2.22 L 5.1,2.22" />
    </g>
</svg>
