<svg id="Layer_1" data-name="Layer 1" xmlns="http://www.w3.org/2000/svg" xmlns:xlink="http://www.w3.org/1999/xlink" viewBox="0 0 750 665"><defs><clipPath id="clip-path"><rect x="84.4" y="470.51" width="92.33" height="26.92" style="fill:none;stroke:#fff;stroke-miterlimit:10;stroke-width:3px"/></clipPath></defs><title>feedback-icons-v2</title><circle cx="619.12" cy="210.78" r="70.22" style="fill:#136174"/><polygon points="602.45 244.2 569.12 237.08 569.12 192.22 602.45 199.34 602.45 244.2" style="fill:#a4deeb;opacity:0.5"/><polygon points="669.12 244.2 635.78 237.08 635.78 192.22 669.12 199.34 669.12 244.2" style="fill:#a4deeb;opacity:0.5"/><polygon points="602.45 244.2 635.78 237.08 635.78 192.22 602.45 199.34 602.45 244.2" style="fill:#a4deeb"/><path d="M619.62,169.7a20.65,20.65,0,0,1,20.45,20.93c-.13,11.49-18.71,27.37-18.71,27.37-2.33,2.27-2.33,2.27-4.6-.05,0,0-18.2-16.3-18.07-27.8A20.65,20.65,0,0,1,619.62,169.7Z" style="fill:#f74e4e;stroke:#fff;stroke-miterlimit:10;stroke-width:3px"/><circle cx="619.38" cy="190.81" r="11.47" transform="translate(421.46 807.95) rotate(-89.34)" style="fill:#fff"/><path d="M614.35,184.59a1.35,1.35,0,0,0-1.26,1.26.86.86,0,0,0,.47.79h0l4.09,4.24L613.57,195a1.23,1.23,0,1,0,1.73,1.73l4.09-4.09,4.09,4.09a1.12,1.12,0,0,0,.94.47,1.35,1.35,0,0,0,1.26-1.26,2.23,2.23,0,0,0-.31-.94l-4.24-4.09,4.09-4.24a.86.86,0,0,0,.47-.79,1.35,1.35,0,0,0-1.26-1.26,2.23,2.23,0,0,0-.94.31L619.38,189l-4.09-4.09a2.23,2.23,0,0,0-.94-.31Z" style="fill:#f74e4e"/><circle cx="619.78" cy="485.68" r="70.22" style="fill:#f74e4e"/><rect x="574.81" y="475.83" width="5.43" height="14.93" rx="2.64" ry="2.64" style="stroke:#000;stroke-miterlimit:10;stroke-width:2px"/><rect x="607.4" y="475.83" width="5.43" height="14.93" rx="2.64" ry="2.64" style="stroke:#000;stroke-miterlimit:10;stroke-width:2px"/><rect x="569.78" y="465.77" width="47.41" height="19.56" style="fill:#912f36"/><polygon points="612.43 466.07 573.85 466.07 580.89 448.46 605.4 448.46 612.43 466.07" style="fill:#912f36"/><polygon points="606.97 465.27 579.32 465.27 583.64 453.23 602.65 453.23 606.97 465.27" style="fill:#fff"/><circle cx="578.72" cy="475.55" r="3.9" style="fill:#fff"/><circle cx="608.95" cy="475.55" r="3.9" style="fill:#fff"/><rect x="627.41" y="475.83" width="5.43" height="14.93" rx="2.64" ry="2.64" style="stroke:#000;stroke-miterlimit:10;stroke-width:2px"/><rect x="659.99" y="475.83" width="5.43" height="14.93" rx="2.64" ry="2.64" style="stroke:#000;stroke-miterlimit:10;stroke-width:2px"/><rect x="622.37" y="465.77" width="47.41" height="19.56" style="fill:#912f36"/><polygon points="665.03 466.07 626.45 466.07 633.48 448.46 657.99 448.46 665.03 466.07" style="fill:#912f36"/><polygon points="659.56 465.27 631.91 465.27 636.23 453.23 655.24 453.23 659.56 465.27" style="fill:#fff"/><circle cx="631.31" cy="475.55" r="3.9" style="fill:#fff"/><circle cx="661.54" cy="475.55" r="3.9" style="fill:#fff"/><rect x="601.11" y="507.95" width="5.43" height="14.93" rx="2.64" ry="2.64" style="stroke:#000;stroke-miterlimit:10;stroke-width:2px"/><rect x="633.7" y="507.95" width="5.43" height="14.93" rx="2.64" ry="2.64" style="stroke:#000;stroke-miterlimit:10;stroke-width:2px"/><rect x="596.08" y="497.9" width="47.41" height="19.56" style="fill:#f4d242"/><polygon points="638.73 498.2 600.15 498.2 607.18 480.59 631.7 480.59 638.73 498.2" style="fill:#f4d242"/><polygon points="633.26 497.39 605.62 497.39 609.94 485.36 628.94 485.36 633.26 497.39" style="fill:#fff"/><circle cx="605.02" cy="507.68" r="3.9" style="fill:#fff"/><circle cx="635.24" cy="507.68" r="3.9" style="fill:#fff"/><text transform="translate(584.67 599.06)" style="font-size:24px;font-family:OpenSans, Open Sans">Traffic</text><text transform="translate(563.22 324.29)" style="font-size:24px;font-family:OpenSans, Open Sans">Map issue</text><circle cx="375.67" cy="483.82" r="70.22" style="fill:#fffa43"/><rect x="358.97" y="468.25" width="34.55" height="13.64"/><rect x="383.51" y="468.48" width="13.64" height="44.55"/><polygon points="342.71 473.79 362.61 489.95 362.61 457.64 342.71 473.79"/><path d="M375.67,433.82a50,50,0,1,0,50,50A50,50,0,0,0,375.67,433.82Zm-40.68,50a40.67,40.67,0,0,1,65.69-32.08l-57.08,57.08A40.49,40.49,0,0,1,335,483.82Zm40.68,40.68a40.49,40.49,0,0,1-25-8.6l57.08-57.08a40.67,40.67,0,0,1-32.08,65.69Z" style="fill:#f74e4e"/><circle cx="375.67" cy="210.28" r="70.22" style="fill:#ee4e8b"/><text transform="translate(308.61 598.56)" style="font-size:24px;font-family:OpenSans, Open Sans">Not allowed</text><text transform="translate(338.48 323.79)" style="font-size:24px;font-family:OpenSans, Open Sans">Wrong<tspan x="-18.15" y="32">directions</tspan></text><circle cx="130.56" cy="485.18" r="70.22" style="fill:#ffb533"/><circle cx="130.56" cy="210.28" r="70.22" style="fill:#7753eb"/><text transform="translate(62.95 598.56)" style="font-size:24px;font-family:OpenSans, Open Sans">Road closed</text><text transform="translate(74.25 323.79)" style="font-size:24px;font-family:OpenSans, Open Sans">Confusing<tspan x="0.97" y="32">directions</tspan></text><text transform="translate(60.34 84.49)" style="font-size:35px;font-family:OpenSans-Bold, Open Sans;font-weight:700">Report</text><path d="M668.4,64a2.58,2.58,0,0,0-2.4,2.4,1.65,1.65,0,0,0,.9,1.5h0l7.8,8.1-7.8,7.8a2.35,2.35,0,1,0,3.3,3.3l7.8-7.8,7.8,7.8a2.14,2.14,0,0,0,1.8.9,2.58,2.58,0,0,0,2.4-2.4,4.26,4.26,0,0,0-.6-1.8L681.3,76l7.8-8.1a1.65,1.65,0,0,0,.9-1.5,2.58,2.58,0,0,0-2.4-2.4,4.26,4.26,0,0,0-1.8.6l-7.8,7.8-7.8-7.8a4.26,4.26,0,0,0-1.8-.6Z"/><path d="M398.45,217.48q.07,1.27.08,2.5" style="fill:none;stroke:#fff;stroke-miterlimit:10;stroke-width:3px"/><path d="M398.38,224.87c-1.42,17.7-11.87,26-22.42,26-22.17,0-37.86-54.79-16.17-54.94,25.55-.17,1.89,50.43-9,52-7.62,1.1-15.61-4-18-16.43" style="fill:none;stroke:#fff;stroke-miterlimit:10;stroke-width:3px;stroke-dasharray:4.892335414886475,4.892335414886475"/><path d="M332.36,229.09q-.15-1.2-.24-2.49" style="fill:none;stroke:#fff;stroke-miterlimit:10;stroke-width:3px"/><path d="M398.77,169.7a20.65,20.65,0,0,1,20.45,20.93c-.13,11.49-18.71,27.37-18.71,27.37-2.33,2.27-2.33,2.27-4.6-.05,0,0-18.2-16.3-18.07-27.8A20.65,20.65,0,0,1,398.77,169.7Z" style="fill:#b43b71;stroke:#fff;stroke-miterlimit:10;stroke-width:3px"/><circle cx="398.53" cy="190.81" r="9.17" transform="translate(203.15 587.12) rotate(-89.34)" style="fill:#fff"/><rect x="100.56" y="436.18" width="60" height="98" style="fill:#70706f"/><rect x="128.06" y="436.18" width="5" height="18.05" style="fill:#fff"/><rect x="128.06" y="462.82" width="5" height="18.05" style="fill:#fff"/><rect x="128.06" y="489.47" width="5" height="18.05" style="fill:#fff"/><rect x="128.06" y="516.12" width="5" height="18.05" style="fill:#fff"/><rect x="84.4" y="470.51" width="92.33" height="26.92" style="fill:#fff"/><rect x="90.06" y="497.43" width="4.44" height="23.41" style="fill:#c6d2e1"/><rect x="166.63" y="497.43" width="4.44" height="23.41" style="fill:#c6d2e1"/><g style="clip-path:url(#clip-path)"><polygon points="81.29 509.77 68.84 498.25 115 455.52 127.46 467.05 81.29 509.77" style="fill:#f47d42"/><polygon points="121.44 511.82 108.99 500.29 157.68 455.23 170.14 466.75 121.44 511.82" style="fill:#f47d42"/><polygon points="156.49 519.67 144.04 508.15 192.73 463.08 205.18 474.61 156.49 519.67" style="fill:#f47d42"/></g><rect x="84.4" y="470.51" width="92.33" height="26.92" style="fill:none;stroke:#fff;stroke-miterlimit:10;stroke-width:3px"/><rect x="98.9" y="164.88" width="63.33" height="90.81" rx="5" ry="5" style="fill:#273d56"/><rect x="102.9" y="175.57" width="55.33" height="69.43" style="fill:#f4f7fb"/><rect x="125.69" y="204.17" width="9.75" height="40.82" style="fill:#c6d2e1"/><circle cx="130.56" cy="224.59" r="13.05" style="fill:#273d56;opacity:0.1"/><rect x="102.9" y="175.57" width="55.33" height="28.6" style="fill:#fff"/><line x1="102.9" y1="204.28" x2="158.23" y2="204.28" style="fill:#273d56;stroke:#273d56;stroke-miterlimit:10;opacity:0.1"/><circle cx="130.56" cy="224.59" r="10.64" style="fill:#fff"/><polygon points="130.56 219.6 125.76 229.57 130.56 227.22 135.36 229.57 130.56 219.6" style="fill:#273d56"/><path d="M108.5,197.62c0-5.41-1.65-13.26,6.94-13.26,8.4,0,6.87,11.78,1.45,11.72-9.33-.09-1.5-19.6,6.53-12.9" style="fill:#fff;stroke:#273d56;stroke-miterlimit:10;stroke-width:2px"/><polygon points="124.16 180.94 122 184.67 126.31 184.67 124.16 180.94" style="fill:#273d56"/><path d="M131.66,191.65v-.54a2.39,2.39,0,0,1,.3-1.22,3.93,3.93,0,0,1,1.1-1.1,4.59,4.59,0,0,0,1-.89,1.29,1.29,0,0,0,.24-.77.83.83,0,0,0-.35-.72,1.68,1.68,0,0,0-1-.25,5.63,5.63,0,0,0-2.5.72l-.8-1.6a7,7,0,0,1,3.46-.91,3.68,3.68,0,0,1,2.39.72,2.36,2.36,0,0,1,.89,1.93,2.57,2.57,0,0,1-.37,1.39,5.22,5.22,0,0,1-1.39,1.32,4.28,4.28,0,0,0-.89.79,1.22,1.22,0,0,0-.19.71v.44Zm-.23,2.5a1.23,1.23,0,0,1,.33-.93,1.34,1.34,0,0,1,1-.31,1.29,1.29,0,0,1,.94.32,1.42,1.42,0,0,1,0,1.83,1.28,1.28,0,0,1-.94.33,1.31,1.31,0,0,1-1-.32A1.22,1.22,0,0,1,131.43,194.15Z" style="fill:#273d56"/><path d="M140.61,191.65v-.54a2.39,2.39,0,0,1,.3-1.22,3.93,3.93,0,0,1,1.1-1.1,4.59,4.59,0,0,0,1-.89,1.29,1.29,0,0,0,.24-.77.83.83,0,0,0-.35-.72,1.68,1.68,0,0,0-1-.25,5.63,5.63,0,0,0-2.5.72l-.8-1.6a7,7,0,0,1,3.46-.91,3.68,3.68,0,0,1,2.39.72,2.36,2.36,0,0,1,.89,1.93,2.57,2.57,0,0,1-.37,1.39,5.22,5.22,0,0,1-1.39,1.32,4.28,4.28,0,0,0-.89.79,1.22,1.22,0,0,0-.19.71v.44Zm-.23,2.5a1.23,1.23,0,0,1,.33-.93,1.34,1.34,0,0,1,1-.31,1.29,1.29,0,0,1,.94.32,1.42,1.42,0,0,1,0,1.83,1.28,1.28,0,0,1-.94.33,1.31,1.31,0,0,1-1-.32A1.22,1.22,0,0,1,140.38,194.15Z" style="fill:#273d56"/><path d="M149.56,191.65v-.54a2.39,2.39,0,0,1,.3-1.22,3.93,3.93,0,0,1,1.1-1.1,4.59,4.59,0,0,0,1-.89,1.29,1.29,0,0,0,.24-.77.83.83,0,0,0-.35-.72,1.68,1.68,0,0,0-1-.25,5.63,5.63,0,0,0-2.5.72l-.8-1.6a7,7,0,0,1,3.46-.91,3.68,3.68,0,0,1,2.39.72,2.36,2.36,0,0,1,.89,1.93,2.57,2.57,0,0,1-.37,1.39,5.22,5.22,0,0,1-1.39,1.32,4.28,4.28,0,0,0-.89.79,1.22,1.22,0,0,0-.19.71v.44Zm-.23,2.5a1.23,1.23,0,0,1,.33-.93,1.34,1.34,0,0,1,1-.31,1.29,1.29,0,0,1,.94.32,1.42,1.42,0,0,1,0,1.83,1.28,1.28,0,0,1-.94.33,1.31,1.31,0,0,1-1-.32A1.22,1.22,0,0,1,149.33,194.15Z" style="fill:#273d56"/></svg>