<svg fill="none" height="34" viewBox="0 0 34 34" width="34" xmlns="http://www.w3.org/2000/svg"><path d="m21.5563 2h-9.1126c-1.0609 0-2.0783.42143-2.82848 1.17157l-6.44365 6.44365c-.75014.75018-1.17157 1.76758-1.17157 2.82838v9.1127c0 1.0609.42143 2.0783 1.17157 2.8285l6.44365 6.4436c.75018.7502 1.76758 1.1716 2.82838 1.1716h9.1127c1.0609 0 2.0783-.4214 2.8285-1.1716l6.4436-6.4436c.7502-.7502 1.1716-1.7676 1.1716-2.8285v-9.1126c0-1.0609-.4214-2.0783-1.1716-2.82848l-6.4436-6.44365c-.7502-.75014-1.7676-1.17157-2.8285-1.17157z" fill="#e6e6e6"/><path d="m12.4437 4c-.5305 0-1.0392.21071-1.4143.58579l-6.44361 6.44361c-.37508.3751-.58579.8838-.58579 1.4142v9.1127c0 .5305.21071 1.0392.58579 1.4143l6.44361 6.4436c.3751.3751.8838.5858 1.4142.5858h9.1127c.5305 0 1.0392-.2107 1.4143-.5858l6.4436-6.4436c.3751-.3751.5858-.8838.5858-1.4143v-9.1126c0-.5305-.2107-1.0392-.5858-1.4143l-6.4436-6.44361c-.3751-.37508-.8838-.58579-1.4143-.58579z" fill="#c92f23"/><path clip-rule="evenodd" d="m21.5563 1h-9.1126c-1.3261 0-2.5979.52678-3.53558 1.46447l-6.44365 6.44365c-.93768.93768-1.46447 2.20948-1.46447 3.53548v9.1127c0 1.3261.52678 2.5979 1.46447 3.5356l6.44365 6.4436c.93768.9377 2.20948 1.4645 3.53548 1.4645h9.1127c1.3261 0 2.5979-.5268 3.5356-1.4645l6.4436-6.4436c.9377-.9377 1.4645-2.2095 1.4645-3.5356v-9.1126c0-1.3261-.5268-2.5979-1.4645-3.53558l-6.4436-6.44365c-.9377-.93768-2.2095-1.46447-3.5356-1.46447zm-18.38473 23.3848c-.75014-.7502-1.17157-1.7676-1.17157-2.8285v-9.1127c0-1.0608.42143-2.0782 1.17157-2.82838l6.44365-6.44365c.75018-.75014 1.76758-1.17157 2.82848-1.17157h9.1126c1.0609 0 2.0783.42143 2.8285 1.17157l6.4436 6.44365c.7502.75018 1.1716 1.76758 1.1716 2.82848v9.1126c0 1.0609-.4214 2.0783-1.1716 2.8285l-6.4436 6.4436c-.7502.7502-1.7676 1.1716-2.8285 1.1716h-9.1127c-1.0608 0-2.0782-.4214-2.82838-1.1716z" fill="#c92f23" fill-rule="evenodd"/><g fill="#e6e6e6"><path d="m11.3891 14.4144c0 .2761-.2239.5-.5.5h-.6071c-.1755 0-.31772-.1423-.31772-.3177 0-.3223-.07916-.5985-.23747-.8287-.149-.2395-.4051-.3592-.76829-.3592-.19556 0-.35388.0369-.47494.1105-.12107.0737-.21885.1658-.29335.2763-.0745.1197-.12572.2578-.15366.4143-.02793.1474-.0419.3039-.0419.4697 0 .1933.00465.3545.01397.4834.01862.1289.05587.244.11175.3453.05587.1013.13503.1888.23747.2624.11175.0737.26075.1473.447.221l1.08957.4282c.31667.1197.57277.2624.76827.4282.1956.1565.3492.3407.461.5525.1024.2209.1723.4742.2095.7596.0373.2763.0559.5939.0559.9531 0 .4143-.0419.8011-.1257 1.1602-.0838.3499-.2189.6492-.4051.8978-.1956.2578-.4517.4604-.7683.6077-.31663.1473-.7031.221-1.15942.221-.34456 0-.66585-.0599-.96385-.1796s-.5541-.2854-.76829-.4972-.38647-.4558-.51684-.732c-.12107-.2855-.1816-.594-.1816-.9255v-.0248c0-.2762.22386-.5.5-.5h.48283c.24411 0 .44199.1979.44199.442 0 .2578.0745.4926.22351.7044.15831.2026.41906.3039.78225.3039.24213 0 .42838-.0323.55876-.0967.13968-.0737.24678-.175.32128-.3039s.11641-.2808.12572-.4558c.01863-.1842.02794-.3867.02794-.6077 0-.2579-.00931-.4696-.02794-.6354-.01863-.1657-.05588-.2993-.11175-.4005-.06519-.1013-.15366-.1842-.26541-.2487-.10244-.0644-.24213-.1335-.41907-.2071l-1.01972-.4144c-.61463-.2486-1.02904-.5755-1.24323-.9807-.20488-.4143-.30732-.93-.30732-1.5469 0-.3684.05122-.7183.15366-1.0498.10244-.3314.2561-.6169.46097-.8563.19557-.2394.44235-.4282.74035-.5663.30732-.1473.67051-.221 1.08957-.221.35388 0 .67517.0645.96386.1934.29795.1289.55405.2992.76825.511.4284.442.6426.9485.6426 1.5194z"/><path d="m13.8901 21.9171c-.2761 0-.5-.2238-.5-.5v-7.9083c0-.0552-.0447-.1-.1-.1h-1.0483c-.2761 0-.5-.2238-.5-.5v-.3259c0-.2762.2239-.5.5-.5h3.7215c.2761 0 .5.2238.5.5v.3259c0 .2762-.2239.5-.5.5h-1.0483c-.0553 0-.1.0448-.1.1v7.9083c0 .2762-.2239.5-.5.5z"/><path d="m16.8448 14.4033c0-.3959.0699-.7458.2095-1.0497.1397-.3039.326-.5571.5588-.7597.2235-.1933.4749-.3407.7543-.442.2887-.1013.5774-.1519.8661-.1519s.5727.0506.8521.1519c.2887.1013.5494.2487.7822.442.2235.2026.4051.4558.5448.7597s.2096.6538.2096 1.0497v5.1934c0 .4144-.0699.7689-.2096 1.0635-.1397.2947-.3213.5387-.5448.7321-.2328.2025-.4935.3545-.7822.4558-.2794.1013-.5634.1519-.8521.1519s-.5774-.0506-.8661-.1519c-.2794-.1013-.5308-.2533-.7543-.4558-.2328-.1934-.4191-.4374-.5588-.7321-.1396-.2946-.2095-.6491-.2095-1.0635zm1.4248 5.1934c0 .3407.0932.5939.2794.7597.1956.1565.4237.2348.6845.2348.2607 0 .4842-.0783.6705-.2348.1956-.1658.2933-.419.2933-.7597v-5.1934c0-.3407-.0977-.5893-.2933-.7458-.1863-.1658-.4098-.2487-.6705-.2487-.2608 0-.4889.0829-.6845.2487-.1862.1565-.2794.4051-.2794.7458z"/><path d="m23.3763 21.9171c-.2761 0-.5-.2238-.5-.5v-8.8342c0-.2762.2239-.5.5-.5h1.6372c.3912 0 .7357.0506 1.0337.1519s.5681.2809.8102.5387c.2422.2578.4098.5617.5029.9116.0931.3407.1397.8057.1397 1.395 0 .442-.0279.8149-.0838 1.1188-.0466.3039-.1537.5893-.3213.8563-.1956.3223-.4563.5756-.7823.7597-.3259.175-.7543.2624-1.2851.2624h-.2264c-.2761 0-.5.2239-.5.5v2.8398c0 .2762-.2238.5-.5.5zm1.0248-8.5083c-.0552 0-.1.0448-.1.1v3.1426c0 .0552.0448.1.1.1h.5845c.2887 0 .5122-.0415.6705-.1243.1583-.0829.2747-.198.3492-.3453.0745-.1382.1164-.3085.1258-.5111.0186-.2026.0279-.4282.0279-.6768 0-.2302-.0047-.4466-.014-.6491-.0093-.2118-.0512-.396-.1257-.5525-.0745-.1566-.1863-.2763-.3353-.3592-.149-.0828-.3631-.1243-.6425-.1243z"/></g></svg>