<svg width="44" height="44" viewBox="0 0 44 44" fill="none" xmlns="http://www.w3.org/2000/svg">
<path d="M44 22C44 9.84974 34.1503 0 22 0C9.84974 0 0 9.84974 0 22C0 34.1503 9.84974 44 22 44C34.1503 44 44 34.1503 44 22Z" fill="white"/>
<path fill-rule="evenodd" clip-rule="evenodd" d="M16.7071 15.2929C16.3166 14.9024 15.6834 14.9024 15.2929 15.2929C14.9024 15.6834 14.9024 16.3166 15.2929 16.7071L20.2426 21.6569L15.2929 26.6066C14.9024 26.9971 14.9024 27.6303 15.2929 28.0208C15.6834 28.4113 16.3166 28.4113 16.7071 28.0208L21.6569 23.0711L26.6066 28.0208C26.9971 28.4113 27.6303 28.4113 28.0208 28.0208C28.4113 27.6303 28.4113 26.9971 28.0208 26.6066L23.0711 21.6569L28.0208 16.7071C28.4113 16.3166 28.4113 15.6834 28.0208 15.2929C27.6303 14.9024 26.9971 14.9024 26.6066 15.2929L21.6569 20.2426L16.7071 15.2929Z" fill="#007AFF"/>
</svg>
