<svg width="44" height="44" viewBox="0 0 44 44" fill="none" xmlns="http://www.w3.org/2000/svg">
<path d="M44 22C44 9.84974 34.1503 0 22 0C9.84974 0 0 9.84974 0 22C0 34.1503 9.84974 44 22 44C34.1503 44 44 34.1503 44 22Z" fill="white"/>
<path fill-rule="evenodd" clip-rule="evenodd" d="M13 17C13 16.4477 13.4477 16 14 16H30C30.5523 16 31 16.4477 31 17C31 17.5523 30.5523 18 30 18H14C13.4477 18 13 17.5523 13 17ZM13 22C13 21.4477 13.4477 21 14 21H30C30.5523 21 31 21.4477 31 22C31 22.5523 30.5523 23 30 23H14C13.4477 23 13 22.5523 13 22ZM14 26C13.4477 26 13 26.4477 13 27C13 27.5523 13.4477 28 14 28H30C30.5523 28 31 27.5523 31 27C31 26.4477 30.5523 26 30 26H14Z" fill="#007AFF"/>
</svg>
