<?xml version="1.0" encoding="UTF-8"?>
<svg width="33px" height="27px" viewBox="0 0 33 27" version="1.1" xmlns="http://www.w3.org/2000/svg" xmlns:xlink="http://www.w3.org/1999/xlink">
    <!-- Generator: Sketch 64 (93537) - https://sketch.com -->
    <title>category_position</title>
    <desc>Created with Sketch.</desc>
    <defs>
        <path d="M35.1064094,-0.000213991662 C35.1381155,0.0356999593 35.169715,0.0717102066 35.2012074,0.107816255 L35.2,26.4 L0,26.4 L0,-0.000213991662 L35.1064094,-0.000213991662 Z" id="path-1"></path>
        <path d="M12.005466,0.41745 L22.130768,20.0333709 C22.2983273,20.3579794 22.171006,20.7569573 21.846396,20.924513 C21.6689953,21.0160853 21.4597167,21.0226292 21.2769407,20.9423197 L11.698038,16.7335439 C11.5286747,16.6591289 11.3358887,16.6590395 11.1664593,16.7332975 L1.556654,20.9450137 C1.222078,21.0916507 0.831974,20.9392935 0.685336667,20.6047143 C0.605286,20.4220573 0.611915333,20.2130317 0.703391333,20.035818 L10.8299547,0.41745 C10.997514,0.09284 11.3964913,-0.034474 11.721094,0.133078 C11.843106,0.196056667 11.9424873,0.295445333 12.005466,0.41745 Z" id="path-3"></path>
    </defs>
    <g id="category_position" stroke="none" stroke-width="1" fill="none" fill-rule="evenodd">
        <g id="Group-5">
            <g id="Group-3">
                <mask id="mask-2" fill="white">
                    <use xlink:href="#path-1"></use>
                </mask>
                <g id="Clip-2"></g>
                <polygon id="Fill-1" fill-opacity="0" fill="#000000" mask="url(#mask-2)" points="-10.2666667 -11.7333333 44.7333333 -11.7333333 44.7333333 43.2666667 -10.2666667 43.2666667"></polygon>
            </g>
            <path d="M11.9048136,1.58215222 L22.0301156,21.1980707 C22.1976676,21.5226807 22.0703536,21.921658 21.7457436,22.0892173 C21.5683429,22.1807887 21.3590642,22.18733 21.1762882,22.1070227 L11.5973856,17.8982467 C11.4280222,17.8238353 11.2352362,17.82374 11.0658069,17.8979973 L1.45600158,22.109714 C1.12142228,22.2563513 0.731319527,22.103994 0.584682575,21.769418 C0.504629063,21.5867593 0.511262312,21.3777373 0.60273598,21.20052 L10.7293022,1.58215222 C10.8968542,1.25754372 11.2958316,1.13022727 11.6204416,1.29778293 C11.7424536,1.36076028 11.8418349,1.46014513 11.9048136,1.58215222 Z" id="Stroke-4" stroke="#000000" stroke-width="1.32287613" stroke-dasharray="2.645751476287842,2.645751476287842"></path>
        </g>
        <g id="Group-8" transform="translate(10.266667, 5.866667)">
            <mask id="mask-4" fill="white">
                <use xlink:href="#path-3"></use>
            </mask>
            <g id="Clip-7"></g>
            <polygon id="Fill-6" fill="#000000" mask="url(#mask-4)" points="-3.03696067 -3.607406 25.871252 -3.607406 25.871252 24.6674758 -3.03696067 24.6674758"></polygon>
        </g>
    </g>
</svg>