<?xml version="1.0" encoding="UTF-8"?>
<svg width="33px" height="32px" viewBox="0 0 33 32" version="1.1" xmlns="http://www.w3.org/2000/svg" xmlns:xlink="http://www.w3.org/1999/xlink">
    <!-- Generator: Sketch 64 (93537) - https://sketch.com -->
    <title>confusing_audio</title>
    <desc>Created with Sketch.</desc>
    <g id="Page-1" stroke="none" stroke-width="1" fill="none" fill-rule="evenodd">
        <g id="confusing_audio" fill="#000000" fill-rule="nonzero">
            <path d="M0,10.526783 L0,21.473216 L7.3333333,21.473216 L16.5,30.595212 L16.5,1.4047863 L7.3333333,10.526783 L0,10.526783 Z M24.75,16.000018 C24.75,12.770831 22.88,9.9977073 20.166667,8.6476517 L20.166667,23.334103 C22.88,22.002291 24.75,19.229205 24.75,16.000018 Z M20.166667,0 L20.166667,3.7582615 C25.465,5.3272449 29.333333,10.216635 29.333333,16.000018 C29.333333,21.783364 25.465,26.672754 20.166667,28.241737 L20.166667,32 C27.518333,30.339797 33,23.808447 33,16.000018 C33,8.1915519 27.518333,1.6602022 20.166667,0 Z" id="path15"></path>
        </g>
    </g>
</svg>