<?xml version="1.0" encoding="UTF-8"?>
<svg width="36px" height="34px" viewBox="0 0 36 34" version="1.1" xmlns="http://www.w3.org/2000/svg" xmlns:xlink="http://www.w3.org/1999/xlink">
    <!-- Generator: Sketch 64 (93537) - https://sketch.com -->
    <title>illegal_route</title>
    <desc>Created with Sketch.</desc>
    <g id="Page-1" stroke="none" stroke-width="1" fill="none" fill-rule="evenodd">
        <g id="illegal_route" fill="#000000" fill-rule="nonzero">
            <path d="M18.000322,0 C20.299647,0 22.332626,1.2074525 23.440471,3.2319392 L35.222744,24.755361 C36.291989,26.707452 36.255961,29.017643 35.127534,30.936122 C33.99781,32.854601 31.999571,34 29.781308,34 L6.2180486,34 C3.9997852,34 2.0015467,32.854601 0.87311448,30.936122 C-0.25660439,29.017643 -0.29134518,26.707452 0.7766123,24.755361 L12.558885,3.2319392 C13.66673,1.2074525 15.700996,0 18.000322,0 Z M18,23 C16.34338,23 15,24.342126 15,25.999192 C15,27.656258 16.34338,29 18,29 C19.65662,29 21,27.656258 21,25.999192 C21,24.342126 19.65662,23 18,23 Z M18.340689,7 L17.659311,7 C16.189989,7 15,8.2638532 15,9.8205505 L15,9.8205505 L15,18.179449 C15,19.737859 16.189989,21 17.659311,21 L17.659311,21 L18.340689,21 C19.810011,21 21,19.737859 21,18.179449 L21,18.179449 L21,9.8205505 C21,8.2638532 19.810011,7 18.340689,7 Z" id="Combined-Shape"></path>
        </g>
    </g>
</svg>