<?xml version="1.0" encoding="UTF-8"?>
<svg width="37px" height="31px" viewBox="0 0 37 31" version="1.1" xmlns="http://www.w3.org/2000/svg" xmlns:xlink="http://www.w3.org/1999/xlink">
    <!-- Generator: Sketch 64 (93537) - https://sketch.com -->
    <title>incorrect_visual</title>
    <desc>Created with Sketch.</desc>
    <g id="Page-1" stroke="none" stroke-width="1" fill="none" fill-rule="evenodd">
        <g id="incorrect_visual" fill="#000000" fill-rule="nonzero">
            <path d="M36.5619572,9.587254 L23.0507762,0.197707 C22.3499082,-0.298488 21.3764802,0.197707 21.3764802,1.037423 L21.3764802,6.724587 L14.5235462,6.724587 C6.50249925,6.724587 2.49999971e-07,13.098791 2.49999971e-07,20.999751 L2.49999971e-07,29.96944 C2.49999971e-07,30.541973 0.46724625,30.9999999 1.05130225,30.9999999 L6.50249925,30.9999999 C7.08655625,30.9999999 7.55380225,30.541973 7.55380225,29.96944 L7.55380225,20.999751 C7.55380225,17.221031 10.6687712,14.16752 14.5235462,14.16752 L21.3764802,14.16752 L21.3764802,19.854685 C21.3764802,20.6944 22.3499082,21.190596 23.0507762,20.6944 L36.5619572,11.304854 C37.1460142,10.884996 37.1460142,10.007112 36.5619572,9.587254 L36.5619572,9.587254 Z" id="Icon" transform="translate(18.500000, 15.500000) scale(-1, 1) translate(-18.500000, -15.500000) "></path>
        </g>
    </g>
</svg>