<?xml version="1.0" encoding="UTF-8"?>
<svg width="40px" height="33px" viewBox="0 0 40 33" version="1.1" xmlns="http://www.w3.org/2000/svg" xmlns:xlink="http://www.w3.org/1999/xlink">
    <!-- Generator: Sketch 64 (93537) - https://sketch.com -->
    <title>route_quality</title>
    <desc>Created with Sketch.</desc>
    <g id="Page-1" stroke="none" stroke-width="1" fill="none" fill-rule="evenodd">
        <g id="route_quality" fill="#000000" fill-rule="nonzero">
            <path d="M33.109375,1.42107463e-14 C32.826221,0.0171 32.638672,0.284609 32.638672,0.755859 L32.638672,2.101562 L26.546875,2.101562 C25.406875,2.101562 24.298516,2.23375 23.228516,2.46875 C25.228516,4.09075 26.837922,6.166156 27.919922,8.535156 L32.638672,8.535156 L32.638672,9.882812 C32.638672,10.635813 33.118125,10.863672 33.703125,10.388672 L38.882812,6.181641 C39.467813,5.706641 39.467813,4.929125 38.882812,4.453125 L33.703125,0.248047 C33.48375,0.069922 33.279268,-0.01026 33.109375,1.42107463e-14 Z M0,0.013672 L0,6.46875 L12.847656,6.46875 C17.820656,6.46875 21.851562,10.501609 21.851562,15.474609 C21.851562,20.447609 17.820656,24.478516 12.847656,24.478516 L6.732422,24.478516 L6.732422,23.132812 C6.732422,22.378813 6.252969,22.15 5.667969,22.625 L0.488281,26.832031 C-0.096719,27.307031 -0.096719,28.084547 0.488281,28.560547 L5.667969,32.765625 C6.252969,33.240625 6.732422,33.0139633 6.732422,32.259766 L6.732422,30.914062 L12.824219,30.914062 C21.356219,30.914062 28.273438,23.995891 28.273438,15.462891 C28.273438,6.930891 21.356219,0.013672 12.824219,0.013672 L0,0.013672 Z M14.474609,7.923828 C12.364609,10.564828 11.095703,13.907781 11.095703,17.550781 C11.095703,19.546781 11.488734,21.448219 12.177734,23.199219 L12.742188,23.199219 C14.866188,23.199219 16.791406,22.337266 18.191406,20.947266 C17.760406,19.895266 17.519531,18.746063 17.519531,17.539062 C17.519531,15.368063 18.288359,13.377266 19.568359,11.822266 C18.527359,9.877266 16.678609,8.430828 14.474609,7.923828 Z M25.273438,26.449219 C23.545437,28.418219 21.372344,29.976844 18.902344,30.964844 C21.158344,32.252844 23.762875,33 26.546875,33 L39.371094,33 L39.371094,26.544922 L26.523438,26.544922 C26.098438,26.544922 25.682438,26.506222 25.273438,26.449219 L25.273438,26.449219 Z" id="Fill-1"></path>
        </g>
    </g>
</svg>