<?xml version="1.0" encoding="UTF-8"?>
<svg width="65px" height="65px" viewBox="0 0 65 65" version="1.1" xmlns="http://www.w3.org/2000/svg" xmlns:xlink="http://www.w3.org/1999/xlink">
    <!-- Generator: Sketch 64 (93537) - https://sketch.com -->
    <title>category_position</title>
    <desc>Created with Sketch.</desc>
    <g id="Page-1" stroke="none" stroke-width="1" fill="none" fill-rule="evenodd">
        <g id="category_position">
            <g id="circle_bg" fill="#000000" fill-rule="nonzero">
                <circle id="Oval" cx="32.5" cy="32.5" r="32.5"></circle>
            </g>
            <g id="Group-10" transform="translate(9.000000, 12.000000)">
                <g id="Group">
                    <path d="M16.2338355,1.1574841 L30.0410655,27.9064683 C30.2695505,28.3491163 30.0959371,28.8931771 29.6532891,29.1216621 C29.4113737,29.2465335 29.1259996,29.255457 28.8767551,29.145944 L15.8146175,23.4067042 C15.5836679,23.3052296 15.3207771,23.3051076 15.0897334,23.4063678 L1.98545648,29.1496176 C1.5292122,29.3495772 0.997253921,29.1418173 0.797294406,28.685573 C0.688130529,28.4364956 0.697175862,28.1514603 0.821912672,27.9098056 L14.6308653,1.1574841 C14.8593503,0.714836119 15.4034111,0.541222744 15.8460591,0.769707777 C16.0124325,0.855585996 16.1479572,0.991110754 16.2338355,1.1574841 Z" id="Triangle-4" stroke="#FFFFFF" stroke-width="1.80392157" stroke-dasharray="3.607843150695165"></path>
                    <path d="M33.3710904,6.56924881 L47.1783204,33.318233 C47.4068054,33.760881 47.233192,34.3049418 46.790544,34.5334268 C46.5486286,34.6582982 46.2632545,34.6672217 46.01401,34.5577087 L32.9518724,28.8184689 C32.7209228,28.7169943 32.458032,28.7168723 32.2269883,28.8181325 L19.1227114,34.5613823 C18.6664671,34.7613419 18.1345088,34.553582 17.9345493,34.0973377 C17.8253854,33.8482603 17.8344308,33.563225 17.9591676,33.3215703 L31.7681202,6.56924881 C31.9966052,6.12660083 32.540666,5.95298745 32.983314,6.18147248 C33.1496874,6.2673507 33.2852121,6.40287546 33.3710904,6.56924881 Z" id="Triangle-4" fill="#FFFFFF" fill-rule="nonzero"></path>
                </g>
            </g>
        </g>
    </g>
</svg>