<?xml version="1.0" encoding="UTF-8" standalone="no"?>
<svg
   xmlns:dc="http://purl.org/dc/elements/1.1/"
   xmlns:cc="http://creativecommons.org/ns#"
   xmlns:rdf="http://www.w3.org/1999/02/22-rdf-syntax-ns#"
   xmlns:svg="http://www.w3.org/2000/svg"
   xmlns="http://www.w3.org/2000/svg"
   xmlns:sodipodi="http://sodipodi.sourceforge.net/DTD/sodipodi-0.dtd"
   xmlns:inkscape="http://www.inkscape.org/namespaces/inkscape"
   inkscape:version="1.0rc1 (09960d6, 2020-04-09)"
   sodipodi:docname="confusing_audio.svg"
   id="svg23"
   version="1.1"
   viewBox="0 0 70 70"
   height="70px"
   width="70px">
  <metadata
     id="metadata29">
    <rdf:RDF>
      <cc:Work
         rdf:about="">
        <dc:format>image/svg+xml</dc:format>
        <dc:type
           rdf:resource="http://purl.org/dc/dcmitype/StillImage" />
        <dc:title>feedback_button_2</dc:title>
      </cc:Work>
    </rdf:RDF>
  </metadata>
  <defs
     id="defs27" />
  <sodipodi:namedview
     inkscape:current-layer="feedback_button_2"
     inkscape:window-maximized="0"
     inkscape:window-y="23"
     inkscape:window-x="0"
     inkscape:cy="33.720293"
     inkscape:cx="40.566728"
     inkscape:zoom="7.8142857"
     inkscape:pagecheckerboard="true"
     showgrid="false"
     id="namedview25"
     inkscape:window-height="658"
     inkscape:window-width="1135"
     inkscape:pageshadow="2"
     inkscape:pageopacity="0"
     guidetolerance="10"
     gridtolerance="10"
     objecttolerance="10"
     borderopacity="1"
     bordercolor="#666666"
     pagecolor="#ffffff" />
  <!-- Generator: Sketch 63.1 (92452) - https://sketch.com -->
  <title
     id="title10">feedback_button_2</title>
  <desc
     id="desc12">Created with Sketch.</desc>
  <g
     fill-rule="evenodd"
     fill="none"
     stroke-width="1"
     stroke="none"
     id="Feedback-UI">
    <g
       transform="translate(-237.000000, -343.000000)"
       id="Tintable-Assets">
      <g
         transform="translate(13.000000, 238.000000)"
         id="Group-Copy">
        <g
           transform="translate(224.000000, 105.000000)"
           id="feedback_button_2">
          <g
             style="fill:#000000;fill-opacity:1"
             fill-rule="nonzero"
             fill="#FFFFFF"
             transform="translate(17.000000, 16.000000)"
             id="Group">
            <g
               style="fill:#000000;fill-opacity:1"
               id="Icon"
               transform="translate(2.000000, 3.000000)">
              <path
                 style="fill:#000000;fill-opacity:1"
                 d="M 0,10.526783 V 21.473216 H 7.3333333 L 16.5,30.595212 V 1.4047863 L 7.3333333,10.526783 Z m 24.75,5.473235 c 0,-3.229187 -1.87,-6.0023107 -4.583333,-7.3523663 V 23.334103 C 22.88,22.002291 24.75,19.229205 24.75,16.000018 Z M 20.166667,0 v 3.7582615 c 5.298333,1.5689834 9.166666,6.4583735 9.166666,12.2417565 0,5.783346 -3.868333,10.672736 -9.166666,12.241719 V 32 C 27.518333,30.339797 33,23.808447 33,16.000018 33,8.1915519 27.518333,1.6602022 20.166667,0 Z M 51,16 C 51,35.3305 35.327,51 16,51 -3.327,51 -19,35.3305 -19,16 c 0,-19.3305 15.673,-35 35,-35 19.327,0 35,15.6695 35,35 z"
                 id="path15" />
            </g>
          </g>
        </g>
      </g>
    </g>
  </g>
</svg>
