<?xml version="1.0" encoding="UTF-8"?>
<svg width="70px" height="70px" viewBox="0 0 70 70" version="1.1" xmlns="http://www.w3.org/2000/svg" xmlns:xlink="http://www.w3.org/1999/xlink">
    <!-- Generator: Sketch 63.1 (92452) - https://sketch.com -->
    <title>feedback_button_4</title>
    <desc>Created with Sketch.</desc>
    <g id="Feedback-UI" stroke="none" stroke-width="1" fill="none" fill-rule="evenodd">
        <g id="Tintable-Assets" transform="translate(-154.000000, -526.000000)">
            <g id="Group-Copy" transform="translate(13.000000, 238.000000)">
                <g id="Group-8" transform="translate(0.000000, 120.000000)">
                    <g id="feedback_button_4" transform="translate(141.000000, 168.000000)">
                        <path d="M70,35 C70,54.3305 54.327,70 35,70 C15.673,70 0,54.3305 0,35 C0,15.6695 15.673,0 35,0 C54.327,0 70,15.6695 70,35 Z" id="Stroke-1-Copy-8" fill="#000000"></path>
                        <g id="Icon" transform="translate(17.000000, 16.000000)" fill="#FFFFFF">
                            <path d="M18.0003217,6.38378239e-14 C20.299647,6.38378239e-14 22.3326263,1.20745247 23.4404713,3.23193916 L35.2227444,24.7553612 C36.2919885,26.7074525 36.2559611,29.0176426 35.1275289,30.9361217 C33.99781,32.8546008 31.9995715,34 29.781308,34 L6.21804865,34 C3.99978517,34 2.00154666,32.8546008 0.87311448,30.9361217 C-0.256604393,29.0176426 -0.291345178,26.7074525 0.776612299,24.7553612 L12.5588853,3.23193916 C13.6667304,1.20745247 15.7009964,6.38378239e-14 18.0003217,6.38378239e-14 Z M18,23 C16.34338,23 15,24.3421265 15,25.9991925 C15,27.6562584 16.34338,29 18,29 C19.65662,29 21,27.6562584 21,25.9991925 C21,24.3421265 19.65662,23 18,23 Z M18.3406889,7 L17.6593111,7 C16.1899892,7 15,8.26385321 15,9.82055046 L15,9.82055046 L15,18.1794495 C15,19.7378593 16.1899892,21 17.6593111,21 L17.6593111,21 L18.3406889,21 C19.8100108,21 21,19.7378593 21,18.1794495 L21,18.1794495 L21,9.82055046 C21,8.26385321 19.8100108,7 18.3406889,7 L18.3406889,7 Z" id="Combined-Shape"></path>
                        </g>
                    </g>
                </g>
            </g>
        </g>
    </g>
</svg>