<?xml version="1.0" encoding="UTF-8" standalone="no"?>
<svg
   xmlns:dc="http://purl.org/dc/elements/1.1/"
   xmlns:cc="http://creativecommons.org/ns#"
   xmlns:rdf="http://www.w3.org/1999/02/22-rdf-syntax-ns#"
   xmlns:svg="http://www.w3.org/2000/svg"
   xmlns="http://www.w3.org/2000/svg"
   xmlns:sodipodi="http://sodipodi.sourceforge.net/DTD/sodipodi-0.dtd"
   xmlns:inkscape="http://www.inkscape.org/namespaces/inkscape"
   inkscape:version="1.0rc1 (09960d6, 2020-04-09)"
   sodipodi:docname="illegal_route.svg"
   id="svg870"
   version="1.1"
   viewBox="0 0 70 70"
   height="70px"
   width="70px">
  <metadata
     id="metadata876">
    <rdf:RDF>
      <cc:Work
         rdf:about="">
        <dc:format>image/svg+xml</dc:format>
        <dc:type
           rdf:resource="http://purl.org/dc/dcmitype/StillImage" />
        <dc:title>feedback_button_4</dc:title>
      </cc:Work>
    </rdf:RDF>
  </metadata>
  <defs
     id="defs874" />
  <sodipodi:namedview
     inkscape:current-layer="feedback_button_4"
     inkscape:window-maximized="0"
     inkscape:window-y="23"
     inkscape:window-x="0"
     inkscape:cy="35"
     inkscape:cx="35"
     inkscape:zoom="3.8857143"
     inkscape:pagecheckerboard="true"
     showgrid="false"
     id="namedview872"
     inkscape:window-height="480"
     inkscape:window-width="731"
     inkscape:pageshadow="2"
     inkscape:pageopacity="0"
     guidetolerance="10"
     gridtolerance="10"
     objecttolerance="10"
     borderopacity="1"
     bordercolor="#666666"
     pagecolor="#ffffff" />
  <!-- Generator: Sketch 63.1 (92452) - https://sketch.com -->
  <title
     id="title858">feedback_button_4</title>
  <desc
     id="desc860">Created with Sketch.</desc>
  <g
     fill-rule="evenodd"
     fill="none"
     stroke-width="1"
     stroke="none"
     id="Feedback-UI">
    <g
       transform="translate(-154.000000, -526.000000)"
       id="Tintable-Assets">
      <g
         transform="translate(13.000000, 238.000000)"
         id="Group-Copy">
        <g
           transform="translate(0.000000, 120.000000)"
           id="Group-8">
          <g
             transform="translate(141.000000, 168.000000)"
             id="feedback_button_4">
            <g
               style="fill:#000000"
               fill="#FFFFFF"
               transform="translate(17.000000, 16.000000)"
               id="Icon">
              <path
                 style="fill:#000000"
                 d="m 18.000322,0 c 2.299325,0 4.332304,1.2074525 5.440149,3.2319392 L 35.222744,24.755361 c 1.069245,1.952091 1.033217,4.262282 -0.09521,6.180761 C 33.99781,32.854601 31.999571,34 29.781308,34 H 6.2180486 C 3.9997852,34 2.0015467,32.854601 0.87311448,30.936122 -0.25660439,29.017643 -0.29134518,26.707452 0.7766123,24.755361 L 12.558885,3.2319392 C 13.66673,1.2074525 15.700996,0 18.000322,0 Z M 18,23 c -1.65662,0 -3,1.342126 -3,2.999192 C 15,27.656258 16.34338,29 18,29 19.65662,29 21,27.656258 21,25.999192 21,24.342126 19.65662,23 18,23 Z M 18.340689,7 H 17.659311 C 16.189989,7 15,8.2638532 15,9.8205505 v 0 8.3588985 C 15,19.737859 16.189989,21 17.659311,21 v 0 h 0.681378 C 19.810011,21 21,19.737859 21,18.179449 v 0 -8.3588985 C 21,8.2638532 19.810011,7 18.340689,7 Z M 53,19 C 53,38.3305 37.327,54 18,54 -1.327,54 -17,38.3305 -17,19 c 0,-19.3305 15.673,-35 35,-35 19.327,0 35,15.6695 35,35 z"
                 id="Combined-Shape" />
            </g>
          </g>
        </g>
      </g>
    </g>
  </g>
</svg>
