<?xml version="1.0" encoding="UTF-8" standalone="no"?>
<svg
   xmlns:dc="http://purl.org/dc/elements/1.1/"
   xmlns:cc="http://creativecommons.org/ns#"
   xmlns:rdf="http://www.w3.org/1999/02/22-rdf-syntax-ns#"
   xmlns:svg="http://www.w3.org/2000/svg"
   xmlns="http://www.w3.org/2000/svg"
   xmlns:sodipodi="http://sodipodi.sourceforge.net/DTD/sodipodi-0.dtd"
   xmlns:inkscape="http://www.inkscape.org/namespaces/inkscape"
   inkscape:version="1.0rc1 (09960d6, 2020-04-09)"
   sodipodi:docname="incorrect_visual.svg"
   id="svg889"
   version="1.1"
   viewBox="0 0 70 70"
   height="70px"
   width="70px">
  <metadata
     id="metadata895">
    <rdf:RDF>
      <cc:Work
         rdf:about="">
        <dc:format>image/svg+xml</dc:format>
        <dc:type
           rdf:resource="http://purl.org/dc/dcmitype/StillImage" />
        <dc:title>feedback_button_1</dc:title>
      </cc:Work>
    </rdf:RDF>
  </metadata>
  <defs
     id="defs893" />
  <sodipodi:namedview
     inkscape:current-layer="feedback_button_1"
     inkscape:window-maximized="0"
     inkscape:window-y="23"
     inkscape:window-x="0"
     inkscape:cy="35"
     inkscape:cx="35"
     inkscape:zoom="3.8857143"
     inkscape:pagecheckerboard="true"
     showgrid="false"
     id="namedview891"
     inkscape:window-height="480"
     inkscape:window-width="731"
     inkscape:pageshadow="2"
     inkscape:pageopacity="0"
     guidetolerance="10"
     gridtolerance="10"
     objecttolerance="10"
     borderopacity="1"
     bordercolor="#666666"
     pagecolor="#ffffff" />
  <!-- Generator: Sketch 63.1 (92452) - https://sketch.com -->
  <title
     id="title879">feedback_button_1</title>
  <desc
     id="desc881">Created with Sketch.</desc>
  <g
     fill-rule="evenodd"
     fill="none"
     stroke-width="1"
     stroke="none"
     id="Feedback-UI">
    <g
       transform="translate(-68.000000, -343.000000)"
       id="Tintable-Assets">
      <g
         transform="translate(13.000000, 238.000000)"
         id="Group-Copy">
        <g
           transform="translate(55.000000, 105.000000)"
           id="feedback_button_1">
          <path
             style="fill:#000000"
             d="M 51.561957,29.587254 38.050776,20.197707 c -0.700868,-0.496195 -1.674296,0 -1.674296,0.839716 v 5.687164 H 29.523546 C 21.502499,26.724587 15,33.098791 15,40.999751 V 49.96944 C 15,50.541973 15.467246,51 16.051302,51 h 5.451197 c 0.584057,0 1.051303,-0.458027 1.051303,-1.03056 v -8.969689 c 0,-3.77872 3.114969,-6.832231 6.969744,-6.832231 h 6.852934 v 5.687165 c 0,0.839715 0.973428,1.335911 1.674296,0.839715 l 13.511181,-9.389546 c 0.584057,-0.419858 0.584057,-1.297742 0,-1.7176 z M -3,35 C -3,54.3305 12.673,70 32,70 51.327,70 67,54.3305 67,35 67,15.6695 51.327,0 32,0 12.673,0 -3,15.6695 -3,35 Z"
             transform="translate(33.500000, 35.500000) scale(-1, 1) translate(-33.500000, -35.500000) "
             id="Icon" />
        </g>
      </g>
    </g>
  </g>
</svg>
